<mxfile host="www.draw.io" modified="2019-11-25T14:33:33.048Z" agent="Mozilla/5.0 (Windows NT 10.0; Win64; x64) AppleWebKit/537.36 (KHTML, like Gecko) Chrome/78.0.3904.108 Safari/537.36" etag="H-I74aBCvTnuJZ_Q2Xqs" version="12.3.0" type="github" pages="1">
  <diagram id="b8ycoN-BNmhEPY0gEm0x" name="Page-1">
    <mxGraphModel dx="1038" dy="940" grid="0" gridSize="10" guides="1" tooltips="1" connect="1" arrows="1" fold="1" page="0" pageScale="1" pageWidth="827" pageHeight="1169" math="0" shadow="0">
      <root>
        <mxCell id="0"/>
        <mxCell id="1" parent="0"/>
        <mxCell id="SZv0ZDtL2PUyngG5VD31-28" style="edgeStyle=orthogonalEdgeStyle;curved=1;rounded=0;orthogonalLoop=1;jettySize=auto;html=1;exitX=0;exitY=0.5;exitDx=0;exitDy=0;entryX=1;entryY=0.5;entryDx=0;entryDy=0;startArrow=classic;startFill=1;" parent="1" source="SZv0ZDtL2PUyngG5VD31-2" target="SZv0ZDtL2PUyngG5VD31-7" edge="1">
          <mxGeometry relative="1" as="geometry"/>
        </mxCell>
        <mxCell id="SZv0ZDtL2PUyngG5VD31-29" style="edgeStyle=orthogonalEdgeStyle;curved=1;rounded=0;orthogonalLoop=1;jettySize=auto;html=1;exitX=0.25;exitY=1;exitDx=0;exitDy=0;entryX=0.75;entryY=0;entryDx=0;entryDy=0;startArrow=classic;startFill=1;" parent="1" source="SZv0ZDtL2PUyngG5VD31-2" target="SZv0ZDtL2PUyngG5VD31-8" edge="1">
          <mxGeometry relative="1" as="geometry"/>
        </mxCell>
        <mxCell id="SZv0ZDtL2PUyngG5VD31-30" style="edgeStyle=orthogonalEdgeStyle;curved=1;rounded=0;orthogonalLoop=1;jettySize=auto;html=1;exitX=0.75;exitY=1;exitDx=0;exitDy=0;entryX=0.25;entryY=0;entryDx=0;entryDy=0;startArrow=classic;startFill=1;" parent="1" source="SZv0ZDtL2PUyngG5VD31-2" target="SZv0ZDtL2PUyngG5VD31-3" edge="1">
          <mxGeometry relative="1" as="geometry"/>
        </mxCell>
        <mxCell id="SZv0ZDtL2PUyngG5VD31-31" style="edgeStyle=orthogonalEdgeStyle;curved=1;rounded=0;orthogonalLoop=1;jettySize=auto;html=1;exitX=1;exitY=0.75;exitDx=0;exitDy=0;entryX=0.25;entryY=0;entryDx=0;entryDy=0;startArrow=classic;startFill=1;" parent="1" source="SZv0ZDtL2PUyngG5VD31-2" target="SZv0ZDtL2PUyngG5VD31-9" edge="1">
          <mxGeometry relative="1" as="geometry"/>
        </mxCell>
        <mxCell id="SZv0ZDtL2PUyngG5VD31-34" style="edgeStyle=orthogonalEdgeStyle;curved=1;rounded=0;orthogonalLoop=1;jettySize=auto;html=1;exitX=0.75;exitY=0;exitDx=0;exitDy=0;startArrow=classic;startFill=1;" parent="1" source="SZv0ZDtL2PUyngG5VD31-2" target="SZv0ZDtL2PUyngG5VD31-11" edge="1">
          <mxGeometry relative="1" as="geometry"/>
        </mxCell>
        <mxCell id="SZv0ZDtL2PUyngG5VD31-35" style="edgeStyle=orthogonalEdgeStyle;curved=1;rounded=0;orthogonalLoop=1;jettySize=auto;html=1;exitX=0.5;exitY=0;exitDx=0;exitDy=0;entryX=0.75;entryY=1;entryDx=0;entryDy=0;startArrow=classic;startFill=1;" parent="1" source="SZv0ZDtL2PUyngG5VD31-2" target="SZv0ZDtL2PUyngG5VD31-12" edge="1">
          <mxGeometry relative="1" as="geometry"/>
        </mxCell>
        <mxCell id="SZv0ZDtL2PUyngG5VD31-36" style="edgeStyle=orthogonalEdgeStyle;curved=1;rounded=0;orthogonalLoop=1;jettySize=auto;html=1;exitX=0.25;exitY=0;exitDx=0;exitDy=0;entryX=1.075;entryY=0.795;entryDx=0;entryDy=0;entryPerimeter=0;startArrow=classic;startFill=1;" parent="1" source="SZv0ZDtL2PUyngG5VD31-2" target="SZv0ZDtL2PUyngG5VD31-6" edge="1">
          <mxGeometry relative="1" as="geometry">
            <Array as="points">
              <mxPoint x="260" y="133"/>
              <mxPoint x="260" y="86"/>
            </Array>
          </mxGeometry>
        </mxCell>
        <mxCell id="SZv0ZDtL2PUyngG5VD31-44" style="edgeStyle=orthogonalEdgeStyle;curved=1;rounded=0;orthogonalLoop=1;jettySize=auto;html=1;exitX=1;exitY=0.5;exitDx=0;exitDy=0;entryX=0;entryY=0.25;entryDx=0;entryDy=0;startArrow=classic;startFill=1;fontSize=16;" parent="1" source="SZv0ZDtL2PUyngG5VD31-2" target="SZv0ZDtL2PUyngG5VD31-5" edge="1">
          <mxGeometry relative="1" as="geometry"/>
        </mxCell>
        <mxCell id="SZv0ZDtL2PUyngG5VD31-45" style="edgeStyle=orthogonalEdgeStyle;curved=1;rounded=0;orthogonalLoop=1;jettySize=auto;html=1;exitX=1;exitY=0.25;exitDx=0;exitDy=0;startArrow=classic;startFill=1;fontSize=16;" parent="1" source="SZv0ZDtL2PUyngG5VD31-2" target="SZv0ZDtL2PUyngG5VD31-15" edge="1">
          <mxGeometry relative="1" as="geometry"/>
        </mxCell>
        <mxCell id="SZv0ZDtL2PUyngG5VD31-2" value="Public&lt;br&gt;KE" style="aspect=fixed;perimeter=ellipsePerimeter;html=1;align=center;shadow=0;dashed=0;spacingTop=3;image;image=img/lib/active_directory/database_server.svg;" parent="1" vertex="1">
          <mxGeometry x="319.5" y="130" width="41" height="50" as="geometry"/>
        </mxCell>
        <mxCell id="SZv0ZDtL2PUyngG5VD31-23" style="edgeStyle=orthogonalEdgeStyle;curved=1;rounded=0;orthogonalLoop=1;jettySize=auto;html=1;exitX=1;exitY=0.5;exitDx=0;exitDy=0;startArrow=classic;startFill=1;" parent="1" source="SZv0ZDtL2PUyngG5VD31-3" target="SZv0ZDtL2PUyngG5VD31-21" edge="1">
          <mxGeometry relative="1" as="geometry"/>
        </mxCell>
        <mxCell id="SZv0ZDtL2PUyngG5VD31-3" value="Governmental" style="shape=image;html=1;verticalAlign=top;verticalLabelPosition=bottom;labelBackgroundColor=#ffffff;imageAspect=0;aspect=fixed;image=https://cdn2.iconfinder.com/data/icons/buildings-41/128/Untitled-1-17-2-128.png" parent="1" vertex="1">
          <mxGeometry x="380" y="280" width="70" height="70" as="geometry"/>
        </mxCell>
        <mxCell id="SZv0ZDtL2PUyngG5VD31-37" style="edgeStyle=orthogonalEdgeStyle;curved=1;rounded=0;orthogonalLoop=1;jettySize=auto;html=1;exitX=0.5;exitY=0;exitDx=0;exitDy=0;startArrow=classic;startFill=1;entryX=0;entryY=0.75;entryDx=0;entryDy=0;" parent="1" source="SZv0ZDtL2PUyngG5VD31-4" target="SZv0ZDtL2PUyngG5VD31-2" edge="1">
          <mxGeometry relative="1" as="geometry">
            <mxPoint x="310" y="166" as="targetPoint"/>
            <Array as="points">
              <mxPoint x="143" y="190"/>
              <mxPoint x="280" y="190"/>
              <mxPoint x="280" y="166"/>
            </Array>
          </mxGeometry>
        </mxCell>
        <mxCell id="SZv0ZDtL2PUyngG5VD31-4" value="National CSIRT" style="shape=image;html=1;verticalAlign=top;verticalLabelPosition=bottom;labelBackgroundColor=#ffffff;imageAspect=0;aspect=fixed;image=https://cdn4.iconfinder.com/data/icons/REALVISTA/real_estate/png/128/apartment.png" parent="1" vertex="1">
          <mxGeometry x="108" y="246" width="70" height="70" as="geometry"/>
        </mxCell>
        <mxCell id="SZv0ZDtL2PUyngG5VD31-5" value="SW manufacturer" style="shape=image;html=1;verticalAlign=top;verticalLabelPosition=bottom;labelBackgroundColor=#ffffff;imageAspect=0;aspect=fixed;image=https://cdn0.iconfinder.com/data/icons/isometric-city-basic-buildings/224/hospital-128.png" parent="1" vertex="1">
          <mxGeometry x="564" y="137" width="70" height="70" as="geometry"/>
        </mxCell>
        <mxCell id="SZv0ZDtL2PUyngG5VD31-6" value="Law&lt;br&gt;Enforcement" style="points=[];aspect=fixed;html=1;align=center;shadow=0;dashed=0;image;image=img/lib/allied_telesis/buildings/School_Building.svg;" parent="1" vertex="1">
          <mxGeometry x="160" y="30" width="69" height="70" as="geometry"/>
        </mxCell>
        <mxCell id="SZv0ZDtL2PUyngG5VD31-7" value="Org. CSIRT" style="shape=image;html=1;verticalAlign=top;verticalLabelPosition=bottom;labelBackgroundColor=#ffffff;imageAspect=0;aspect=fixed;image=https://cdn0.iconfinder.com/data/icons/isometric-city-basic-buildings/224/hospital-128.png" parent="1" vertex="1">
          <mxGeometry x="90" y="109" width="70" height="70" as="geometry"/>
        </mxCell>
        <mxCell id="SZv0ZDtL2PUyngG5VD31-39" style="edgeStyle=orthogonalEdgeStyle;curved=1;rounded=0;orthogonalLoop=1;jettySize=auto;html=1;exitX=1;exitY=0.25;exitDx=0;exitDy=0;entryX=0;entryY=0.75;entryDx=0;entryDy=0;startArrow=classic;startFill=1;" parent="1" source="SZv0ZDtL2PUyngG5VD31-8" target="SZv0ZDtL2PUyngG5VD31-21" edge="1">
          <mxGeometry relative="1" as="geometry">
            <Array as="points">
              <mxPoint x="360" y="308"/>
              <mxPoint x="360" y="224"/>
            </Array>
          </mxGeometry>
        </mxCell>
        <mxCell id="SZv0ZDtL2PUyngG5VD31-8" value="National CSIRT" style="shape=image;html=1;verticalAlign=top;verticalLabelPosition=bottom;labelBackgroundColor=#ffffff;imageAspect=0;aspect=fixed;image=https://cdn0.iconfinder.com/data/icons/isometric-city-basic-buildings/224/hospital-128.png" parent="1" vertex="1">
          <mxGeometry x="260" y="290" width="70" height="70" as="geometry"/>
        </mxCell>
        <mxCell id="SZv0ZDtL2PUyngG5VD31-9" value="HW manufacturer" style="shape=image;html=1;verticalAlign=top;verticalLabelPosition=bottom;labelBackgroundColor=#ffffff;imageAspect=0;aspect=fixed;image=https://cdn4.iconfinder.com/data/icons/REALVISTA/real_estate/png/128/apartment.png" parent="1" vertex="1">
          <mxGeometry x="510" y="230" width="70" height="70" as="geometry"/>
        </mxCell>
        <mxCell id="SZv0ZDtL2PUyngG5VD31-11" value="Standardization" style="shape=image;html=1;verticalAlign=top;verticalLabelPosition=bottom;labelBackgroundColor=#ffffff;imageAspect=0;aspect=fixed;image=https://cdn2.iconfinder.com/data/icons/buildings-41/128/Untitled-1-17-2-128.png" parent="1" vertex="1">
          <mxGeometry x="392.5" y="-5" width="70" height="70" as="geometry"/>
        </mxCell>
        <mxCell id="SZv0ZDtL2PUyngG5VD31-12" value="Security" style="shape=image;html=1;verticalAlign=top;verticalLabelPosition=bottom;labelBackgroundColor=#ffffff;imageAspect=0;aspect=fixed;image=https://cdn4.iconfinder.com/data/icons/REALVISTA/real_estate/png/128/apartment.png" parent="1" vertex="1">
          <mxGeometry x="270" width="70" height="70" as="geometry"/>
        </mxCell>
        <mxCell id="SZv0ZDtL2PUyngG5VD31-15" value="Consultance&lt;br&gt;Provider" style="points=[];aspect=fixed;html=1;align=center;shadow=0;dashed=0;image;image=img/lib/allied_telesis/buildings/School_Building.svg;" parent="1" vertex="1">
          <mxGeometry x="516" y="18" width="69" height="70" as="geometry"/>
        </mxCell>
        <mxCell id="SZv0ZDtL2PUyngG5VD31-17" style="edgeStyle=orthogonalEdgeStyle;rounded=0;orthogonalLoop=1;jettySize=auto;html=1;exitX=0;exitY=0.5;exitDx=0;exitDy=0;entryX=1;entryY=0.75;entryDx=0;entryDy=0;curved=1;startArrow=classic;startFill=1;" parent="1" source="SZv0ZDtL2PUyngG5VD31-16" target="SZv0ZDtL2PUyngG5VD31-7" edge="1">
          <mxGeometry relative="1" as="geometry"/>
        </mxCell>
        <mxCell id="SZv0ZDtL2PUyngG5VD31-18" style="edgeStyle=orthogonalEdgeStyle;curved=1;rounded=0;orthogonalLoop=1;jettySize=auto;html=1;exitX=0;exitY=0.75;exitDx=0;exitDy=0;entryX=1;entryY=0.25;entryDx=0;entryDy=0;startArrow=classic;startFill=1;" parent="1" source="SZv0ZDtL2PUyngG5VD31-16" target="SZv0ZDtL2PUyngG5VD31-4" edge="1">
          <mxGeometry relative="1" as="geometry"/>
        </mxCell>
        <mxCell id="SZv0ZDtL2PUyngG5VD31-20" style="edgeStyle=orthogonalEdgeStyle;curved=1;rounded=0;orthogonalLoop=1;jettySize=auto;html=1;exitX=1;exitY=0.5;exitDx=0;exitDy=0;entryX=0.5;entryY=0;entryDx=0;entryDy=0;startArrow=classic;startFill=1;" parent="1" source="SZv0ZDtL2PUyngG5VD31-16" target="SZv0ZDtL2PUyngG5VD31-8" edge="1">
          <mxGeometry relative="1" as="geometry"/>
        </mxCell>
        <mxCell id="SZv0ZDtL2PUyngG5VD31-16" value="Private&lt;br&gt;KE" style="aspect=fixed;perimeter=ellipsePerimeter;html=1;align=center;shadow=0;dashed=0;spacingTop=3;image;image=img/lib/active_directory/database_server.svg;" parent="1" vertex="1">
          <mxGeometry x="219" y="200" width="41" height="50" as="geometry"/>
        </mxCell>
        <mxCell id="SZv0ZDtL2PUyngG5VD31-26" style="edgeStyle=orthogonalEdgeStyle;curved=1;rounded=0;orthogonalLoop=1;jettySize=auto;html=1;exitX=1;exitY=0.5;exitDx=0;exitDy=0;entryX=0;entryY=0.5;entryDx=0;entryDy=0;startArrow=classic;startFill=1;" parent="1" source="SZv0ZDtL2PUyngG5VD31-21" target="SZv0ZDtL2PUyngG5VD31-5" edge="1">
          <mxGeometry relative="1" as="geometry"/>
        </mxCell>
        <mxCell id="SZv0ZDtL2PUyngG5VD31-27" style="edgeStyle=orthogonalEdgeStyle;curved=1;rounded=0;orthogonalLoop=1;jettySize=auto;html=1;exitX=0;exitY=0.5;exitDx=0;exitDy=0;startArrow=classic;startFill=1;" parent="1" source="SZv0ZDtL2PUyngG5VD31-21" target="SZv0ZDtL2PUyngG5VD31-6" edge="1">
          <mxGeometry relative="1" as="geometry"/>
        </mxCell>
        <mxCell id="SZv0ZDtL2PUyngG5VD31-21" value="Community&lt;br&gt;KE" style="aspect=fixed;perimeter=ellipsePerimeter;html=1;align=center;shadow=0;dashed=0;spacingTop=3;image;image=img/lib/active_directory/database_server.svg;" parent="1" vertex="1">
          <mxGeometry x="440" y="187" width="41" height="50" as="geometry"/>
        </mxCell>
        <mxCell id="SZv0ZDtL2PUyngG5VD31-41" value="Nations" style="text;html=1;strokeColor=none;fillColor=none;align=center;verticalAlign=middle;whiteSpace=wrap;rounded=0;fontSize=16;" parent="1" vertex="1">
          <mxGeometry x="189" y="382" width="40" height="20" as="geometry"/>
        </mxCell>
        <mxCell id="SZv0ZDtL2PUyngG5VD31-42" value="Organizations" style="text;html=1;strokeColor=none;fillColor=none;align=center;verticalAlign=middle;whiteSpace=wrap;rounded=0;fontSize=16;" parent="1" vertex="1">
          <mxGeometry x="209" y="-25" width="40" height="20" as="geometry"/>
        </mxCell>
        <mxCell id="SZv0ZDtL2PUyngG5VD31-43" value="Industry" style="text;html=1;strokeColor=none;fillColor=none;align=center;verticalAlign=middle;whiteSpace=wrap;rounded=0;fontSize=16;" parent="1" vertex="1">
          <mxGeometry x="660" y="190" width="40" height="20" as="geometry"/>
        </mxCell>
      </root>
    </mxGraphModel>
  </diagram>
</mxfile>
